PathFileType	4	(X/Y/Z)	C:/Users/opensim2020/Desktop/walking_exp_matlab/subject02_walking16_run.trc																																																																																																																																																							
DataRate	CameraRate	NumFrames	NumMarkers	Units	OrigDataRate	OrigDataStartFrame	OrigNumFrames																																																																																																																																																			
100	100	4	51	mm	100	184	124																																																																																																																																																			
Frame#	Time	RTOE			LSHO			LELB			RELB			RFIN			LTHI			LKNE			RWRB			RUPA			LTIB			RASI			LANK			LTOE			RSHO			RWRA			RFRM			LASI			STRN			LFHD			RTHI			RFHD			LWRB			LFIN			LUPA			RKNE			RBHD			LFRM			C7			LWRA			RTIB			CLAV			LHEE			RANK			LBHD			RBAK			RHEE			T10			LPSI			RPSI			*39			*40			*41			*42			*43			*44			*45			*46			*47			*48			*49			*50		
		X1	Y1	Z1	X2	Y2	Z2	X3	Y3	Z3	X4	Y4	Z4	X5	Y5	Z5	X6	Y6	Z6	X7	Y7	Z7	X8	Y8	Z8	X9	Y9	Z9	X10	Y10	Z10	X11	Y11	Z11	X12	Y12	Z12	X13	Y13	Z13	X14	Y14	Z14	X15	Y15	Z15	X16	Y16	Z16	X17	Y17	Z17	X18	Y18	Z18	X19	Y19	Z19	X20	Y20	Z20	X21	Y21	Z21	X22	Y22	Z22	X23	Y23	Z23	X24	Y24	Z24	X25	Y25	Z25	X26	Y26	Z26	X27	Y27	Z27	X28	Y28	Z28	X29	Y29	Z29	X30	Y30	Z30	X31	Y31	Z31	X32	Y32	Z32	X33	Y33	Z33	X34	Y34	Z34	X35	Y35	Z35	X36	Y36	Z36	X37	Y37	Z37	X38	Y38	Z38	X39	Y39	Z39	X40	Y40	Z40	X41	Y41	Z41	X42	Y42	Z42	X43	Y43	Z43	X44	Y44	Z44	X45	Y45	Z45	X46	Y46	Z46	X47	Y47	Z47	X48	Y48	Z48	X49	Y49	Z49	X50	Y50	Z50	X51	Y51	Z51
																																																																																																																																																										
32	0.31	-1423.78088	141.30312	142.54515	-1009.97968	1446.57458	-208.6908	-1096.43628	1135.01208	-349.50803	-1091.09595	1213.1062	320.65063	-876.44232	1061.51404	173.42479	-1028.65283	674.84381	-169.36436	-1002.62061	480.30219	-119.85336	-934.49561	1049.31677	205.09996	-1068.28662	1349.47681	269.43707	-1069.08899	297.75116	-109.87013	-1022.2381	979.44128	121.24702	-1071.88245	71.12759	-57.36155	-914.5672	33.01678	-46.62645	-984.48499	1486.22461	149.06998	-933.83691	1094.47522	170.15164	-1010.09454	1132.26123	267.07306	-1028.3313	989.4754	-122.27795	-939.1153	1247.19958	-17.15306	-930.56091	1718.24854	-112.15041	-1122.97778	658.6239	204.93204	-933.30353	1710.89941	32.75924	-918.2489	1018.32166	-196.18117	-859.44684	1018.43713	-162.01169	-1078.57532	1270.93738	-315.02502	-1138.35596	454.28189	173.40114	-1060.26111	1608.83777	23.52744	-1005.6532	1058.84961	-275.76611	-1074.85474	1512.00867	-32.01482	-907.42072	1073.35657	-183.76857	-1306.5979	379.80554	156.319	-952.54504	1423.97815	-42.48553	-1111.2439	46.06387	-9.52112	-1466.89282	286.36835	103.36198	-1044.90564	1620.33862	-118.83807	-1160.69617	1378.95935	62.0153	-1520.4978	270.59735	36.93059	-1190.06323	1280.75769	7.70572	-1220.52112	1066.60925	-47.48161	-1220.76196	1073.99817	69.51078	NaN	NaN	NaN	2845.80688	1034.85522	-3357.35669	NaN	NaN	NaN	NaN	NaN	NaN	NaN	NaN	NaN	NaN	NaN	NaN	NaN	NaN	NaN	NaN	NaN	NaN	NaN	NaN	NaN	NaN	NaN	NaN	-1046.8092	1769.30225	-31.53662	NaN	NaN	NaN
33	0.32	-1351.63855	135.93565	152.31454	-973.18665	1437.86792	-211.16817	-1039.35596	1112.70398	-332.50909	-1066.27124	1214.70093	320.17844	-863.01337	1038.36328	190.79492	-1002.05585	666.45856	-169.64897	-987.0462	468.90662	-116.58752	-922.56451	1030.91907	218.63074	-1037.80933	1348.76685	267.44009	-1054.19141	287.24301	-105.43266	-984.40662	973.79089	120.21347	-1063.4231	63.09233	-51.89366	-909.0719	29.98718	-51.9799	-948.11578	1481.41858	147.11021	-916.55975	1074.80396	182.20244	-991.66046	1123.66113	272.70023	-991.84857	983.91803	-125.6075	-902.46686	1239.61194	-16.92443	-893.41339	1713.48914	-111.23524	-1067.66431	650.79175	207.74783	-896.54712	1705.27136	33.81184	-853.60309	1032.88635	-164.90022	-796.5484	1043.63257	-129.09151	-1033.17639	1252.20959	-308.0163	-1072.93652	449.14023	178.3613	-1023.44427	1603.16492	23.55885	-943.51202	1055.54626	-250.39697	-1039.10828	1505.93994	-34.48186	-849.92407	1090.09875	-157.53706	-1239.23193	373.11624	163.36729	-916.23993	1417.43604	-42.94115	-1107.90039	40.85639	-2.64301	-1399.1554	278.37277	112.02976	-1007.80798	1615.54224	-118.71664	-1126.18066	1374.31042	58.57248	-1453.98169	261.10416	46.17332	-1153.44312	1274.29089	4.73459	-1184.70801	1058.3855	-45.33553	-1183.44653	1065.83081	71.21919	NaN	NaN	NaN	2845.32349	1034.5343	-3360.35498	NaN	NaN	NaN	NaN	NaN	NaN	NaN	NaN	NaN	NaN	NaN	NaN	NaN	NaN	NaN	NaN	NaN	NaN	NaN	NaN	NaN	NaN	NaN	NaN	-1009.91345	1763.83362	-30.09996	NaN	NaN	NaN
34	0.33	-1276.19006	129.33586	161.89926	-936.13074	1429.78625	-213.51283	-978.14728	1094.03882	-314.54126	-1041.7063	1216.73218	321.18823	-851.58765	1020.01691	207.63005	-982.18329	658.42963	-167.55751	-971.97296	457.58994	-112.01957	-912.04431	1016.92096	232.85997	-1007.84363	1348.37683	265.69891	-1034.56824	274.73312	-100.70361	-946.32111	966.6095	119.80447	-1064.92383	62.64539	-47.6792	-910.46527	30.08038	-48.75576	-912.92932	1476.91162	145.30849	-901.23645	1059.33557	195.17715	-973.70648	1116.80676	280.2142	-957.90277	976.56775	-128.95947	-865.62695	1231.35071	-16.6846	-856.10876	1709.06946	-110.18435	-1011.07556	643.80743	210.15155	-859.41687	1699.86414	34.81658	-790.34235	1053.68677	-136.50354	-736.58521	1074.29822	-98.89108	-985.20477	1234.78381	-300.85336	-1007.05786	445.93008	182.85756	-986.7077	1597.95789	23.61696	-879.45636	1057.28955	-224.79108	-1003.59161	1499.27515	-36.84903	-794.50745	1110.91235	-133.43822	-1170.83716	366.70358	170.42467	-879.36554	1410.46863	-43.50647	-1108.34863	41.19655	1.13877	-1329.49878	268.87103	120.7589	-970.7597	1611.27295	-118.52781	-1090.03162	1367.63257	54.84822	-1384.94739	249.18045	55.68893	-1116.69751	1266.38721	1.86169	-1149.29614	1049.48755	-43.07011	-1146.55847	1056.2168	73.08596	NaN	NaN	NaN	2845.32275	1034.30383	-3360.35938	NaN	NaN	NaN	NaN	NaN	NaN	NaN	NaN	NaN	NaN	NaN	NaN	NaN	NaN	NaN	NaN	NaN	NaN	NaN	NaN	NaN	NaN	NaN	NaN	-972.70135	1759.0498	-28.65106	NaN	NaN	NaN
35	0.34	-1196.74146	121.798	170.5238	-899.25708	1423.35767	-215.80608	-913.38751	1080.6825	-295.26697	-1019.12158	1220.41772	323.48849	-839.91998	1008.5318	223.5764	-960.35773	648.37628	-162.26997	-950.42828	450.1402	-108.00114	-901.00165	1009.18219	246.51402	-978.41632	1349.52551	264.81625	-1018.19104	276.53284	-100.07643	-908.80334	957.87762	118.30839	-1063.8053	65.88491	-47.55054	-909.00189	29.93407	-48.17303	-879.32184	1473.45654	144.10672	-886.47723	1049.30054	206.9877	-957.52905	1113.26514	288.60648	-925.8631	968.07605	-130.82106	-828.56995	1223.03381	-16.42714	-818.50409	1705.75354	-108.71951	-952.9165	643.24683	211.82628	-822.49902	1695.3208	36.35049	-729.87158	1078.71204	-109.98079	-680.93323	1108.95886	-71.95393	-934.33936	1220.67224	-292.64218	-942.04828	445.85278	186.03668	-949.92773	1593.82617	23.62759	-815.07446	1063.97437	-200.54785	-968.17358	1493.02649	-38.9289	-741.48218	1135.05176	-111.36063	-1101.89722	361.19531	176.9789	-841.66046	1403.91797	-44.37576	-1107.49072	42.59919	1.14962	-1257.90234	257.82535	129.82956	-933.61902	1608.3634	-118.39451	-1055.55969	1360.79321	50.13346	-1313.93054	235.23732	66.08097	-1079.91516	1257.33337	-0.7368	-1114.73145	1040.24341	-41.11235	-1110.33594	1045.55298	75.03648	NaN	NaN	NaN	2845.92993	1034.27612	-3357.30664	NaN	NaN	NaN	NaN	NaN	NaN	NaN	NaN	NaN	NaN	NaN	NaN	NaN	NaN	NaN	NaN	NaN	NaN	NaN	NaN	NaN	NaN	NaN	NaN	-935.28333	1755.42053	-27.09867	NaN	NaN	NaN
